# xmcd
#
# Track frame offsets: 
#        150
#        16308
#        36753
#        50837
#        70829
#        88158
#        110206
#        125991
#        139029
#        150152
#        171474
#        189849
#        207279
#
# Disc length: 2999 seconds
#
# Revision: 0
# Processed by: cddbd v1.5.2PL0 Copyright (c) Steve Scherf et al.
# Submitted via: ExactAudioCopy v0.99pb4
#
DISCID=bb0bb50d
DTITLE=J.C. Smith Band - That's What I'm Talk'n 'Bout
DYEAR=2004
DGENRE=Blues
TTITLE0=Two Bones and a Pick
TTITLE1=In the City
TTITLE2=24 Hours of the Day
TTITLE3=What Your Love Has Done for Me 
TTITLE4=Recession Blues
TTITLE5=Blues N' Trouble
TTITLE6=Stormy Monday
TTITLE7=Gettin Drunk
TTITLE8=Silver Dollar Boogie
TTITLE9=Can't You See WhatYou're Doin
TTITLE10=Back To Chicago
TTITLE11=Mother-in-Law Blues
TTITLE12=Woke Up This Morning
EXTD=
EXTT0=
EXTT1=
EXTT2=
EXTT3=
EXTT4=
EXTT5=
EXTT6=
EXTT7=
EXTT8=
EXTT9=
EXTT10=
EXTT11=
EXTT12=
PLAYORDER=
